<?xml version="1.0" encoding="UTF-8"?>
<svg xmlns="http://www.w3.org/2000/svg"
     width="192" height="192" viewBox="0 0 192 192"
     shape-rendering="crispEdges"
     preserveAspectRatio="xMidYMid meet">

  <!-- Transparent background: no rect -->

  <!-- Pixel grid scale:
       original synth block = 64x64 centered inside 192x192 canvas.
       Place synth top-left at (64,64). Coordinates are integer to preserve pixel look. -->
  <g transform="translate(64,64)">

    <!-- Outer frame of synth -->
    <rect x="0" y="0" width="64" height="64" fill="#ff8a1a"/>
    <!-- inner panel -->
    <rect x="4" y="6" width="56" height="28" fill="#ff6a00"/>

    <!-- control squares on top panel -->
    <rect x="8"  y="10" width="6" height="6" fill="#0d0d0d"/>
    <rect x="16" y="10" width="6" height="6" fill="#0d0d0d"/>
    <rect x="24" y="10" width="6" height="6" fill="#0d0d0d"/>
    <rect x="8"  y="18" width="6" height="6" fill="#0d0d0d"/>
    <rect x="16" y="18" width="6" height="6" fill="#0d0d0d"/>
    <rect x="24" y="18" width="6" height="6" fill="#0d0d0d"/>

    <!-- center display -->
    <rect x="36" y="8" width="14" height="12" fill="#0d0d0d"/>
    <rect x="38" y="10" width="10" height="8" fill="#ff7a1a"/>

    <!-- right controls -->
    <rect x="44" y="10" width="6" height="6" fill="#0d0d0d"/>
    <rect x="52" y="10" width="6" height="6" fill="#0d0d0d"/>
    <rect x="44" y="18" width="6" height="6" fill="#0d0d0d"/>
    <rect x="52" y="18" width="6" height="6" fill="#0d0d0d"/>

    <!-- strip separating keyboard -->
    <rect x="0" y="34" width="64" height="4" fill="#d95700"/>

    <!-- Keyboard area background -->
    <rect x="4" y="40" width="56" height="20" fill="#111111"/>

    <!-- White keys -->
    <rect x="6"  y="42" width="6"  height="16" fill="#ffffff"/>
    <rect x="14" y="42" width="6"  height="16" fill="#ffffff"/>
    <rect x="22" y="42" width="6"  height="16" fill="#ffffff"/>
    <rect x="30" y="42" width="6"  height="16" fill="#ffffff"/>
    <rect x="38" y="42" width="6"  height="16" fill="#ffffff"/>
    <rect x="46" y="42" width="6"  height="16" fill="#ffffff"/>
    <rect x="54" y="42" width="6"  height="16" fill="#ffffff"/>

    <!-- Black keys -->
    <rect x="11" y="42" width="4" height="10" fill="#000000"/>
    <rect x="19" y="42" width="4" height="10" fill="#000000"/>
    <rect x="35" y="42" width="4" height="10" fill="#000000"/>
    <rect x="43" y="42" width="4" height="10" fill="#000000"/>
    <rect x="51" y="42" width="4" height="10" fill="#000000"/>

    <!-- small feet / base accent -->
    <rect x="2" y="60" width="8" height="4" fill="#b84a00"/>
    <rect x="54" y="60" width="8" height="4" fill="#b84a00"/>

    <!-- border outline -->
    <rect x="0" y="0" width="64" height="64" fill="none" stroke="#0b0b0b" stroke-width="1"/>
  </g>
</svg>